<?xml version="1.0" encoding="UTF-8"?>
<svg width="367px" height="366px" viewBox="0 0 367 366" version="1.1" xmlns="http://www.w3.org/2000/svg" xmlns:xlink="http://www.w3.org/1999/xlink">
    <!-- Generator: Sketch 64 (93537) - https://sketch.com -->
    <title>Combined Shape</title>
    <desc>Created with Sketch.</desc>
    <g id="Page-1" stroke="none" stroke-width="1" fill="none" fill-rule="evenodd">
        <g id="Artboard" transform="translate(-27.000000, -27.000000)" fill="#1B1B1C">
            <path d="M89.7860184,33.1301766 L210.194,153.204 L330.602027,33.1301766 C338.706207,25.0484457 351.765576,24.9576397 359.981108,32.8577587 L360.259292,33.1301766 L387.216678,60.0128878 C387.230427,60.026599 387.244157,60.0403292 387.257869,60.0540785 C395.447496,68.2664552 395.429055,81.562907 387.216678,89.7525347 L387.216678,89.7525347 L266.891,209.744 L387.216678,329.736928 C395.429055,337.926556 395.447496,351.223008 387.257869,359.435385 L387.216678,359.476575 L387.216678,359.476575 L360.259292,386.359287 C352.063019,394.532855 338.7983,394.532855 330.602027,386.359287 L210.194,266.284 L89.7860184,386.359287 C81.6818383,394.441017 68.6224696,394.531823 60.4069369,386.631705 L60.1287528,386.359287 L33.1713673,359.476575 L33.1713673,359.476575 L33.1301767,359.435385 C24.9405489,351.223008 24.9589906,337.926556 33.1713673,329.736928 L33.1713673,329.736928 L153.497,209.744 L33.1713673,89.7525347 C24.9589906,81.562907 24.9405489,68.2664552 33.1301767,60.0540785 C33.1438878,60.0403292 33.1576181,60.026599 33.1713673,60.0128878 L60.1287528,33.1301766 C68.3250259,24.9566078 81.5897453,24.9566078 89.7860184,33.1301766 Z" id="Combined-Shape"></path>
        </g>
    </g>
</svg>