<svg width="1175" height="1175" xmlns="http://www.w3.org/2000/svg" xmlns:xlink="http://www.w3.org/1999/xlink"><defs><path d="M489.5 0C759.843 0 979 219.157 979 489.5 979 759.843 759.843 979 489.5 979 219.157 979 0 759.843 0 489.5 0 219.157 219.157 0 489.5 0zm-.5 80C262.563 80 79 263.563 79 490s183.563 410 410 410 410-183.563 410-410S715.437 80 489 80z" id="a"/></defs><g transform="translate(98 98)" fill="none" fill-rule="evenodd"><mask id="b" fill="#fff"><use xlink:href="#a"/></mask><use fill="#FFF" opacity=".593" xlink:href="#a"/><path d="M481.5-1C756.262-1 979 222.186 979 497.505c-28.254 0-54.894.011-80.013-.061l.013.056C899 264.797 713.736 80 481.5 80l-.096.003c-.1-25.216.307-53.45.096-81.003z" fill="#FFF" mask="url(#b)"/></g></svg>
