<svg xmlns="http://www.w3.org/2000/svg" width="197" height="197"><path fill="#FFF" fill-rule="evenodd" d="M99.007 13c33.563 0 62.626 19.312 76.729 47.454 2.797 1.569 4.947 3.897 6.361 6.87 1.361 2.862 2.033 6.035 2.033 9.466 0 2.318-.234 4.562-.701 6.726a86.559 86.559 0 0 1 1.35 18.045l4.221-.682-.357 40.092-16.316 2.734C157.263 168.467 130.06 185 99.007 185c-20.843 0-39.95-7.447-54.817-19.832l-29.565 4.951.179-41.14 3.541-.57a85.461 85.461 0 0 1-1.04-3.044c-2.48-1.983-4.428-4.655-5.834-7.938C9.809 113.545 9 109.052 9 103.97 9 95 10.574 86.886 13.747 79.662a51.295 51.295 0 0 1 3.363-6.414C28.03 38.332 60.567 13 99.007 13Zm65.95 131.94-6.653 1.114c-13.853 17.512-35.266 28.744-59.297 28.744-15.034 0-29.043-4.396-40.817-11.975l-6.497 1.088c13.278 9.77 29.668 15.54 47.403 15.54 27.28 0 51.377-13.652 65.862-34.511ZM184 106 19 133.482V164l165-27.482V106ZM46.263 135.384c1.285-.181 2.242-.124 2.87.171.678.318 1.075.88 1.19 1.685.115.804.057 1.929-.172 3.373-.212 1.338-.506 2.454-.882 3.347a4.953 4.953 0 0 1-1.76 2.18l1.172 6.55-4.744.774-.78-5.842-1.467.24-.973 6.128-4.6.751 2.886-18.175 6.958-1.136Zm16.816-2.735c2.058-.332 3.48-.297 4.268.105.788.4 1.194 1.17 1.218 2.31.023 1.137-.184 3.071-.622 5.801-.437 2.73-.855 4.694-1.253 5.891-.398 1.198-1.08 2.143-2.043 2.835-.963.692-2.473 1.204-4.53 1.536-2.059.332-3.476.292-4.253-.12-.777-.412-1.178-1.182-1.203-2.312-.025-1.13.182-3.06.62-5.789.437-2.73.856-4.698 1.255-5.904.4-1.207 1.076-2.15 2.028-2.833.953-.682 2.458-1.189 4.515-1.52Zm-35.966 12.094c1.23 0 2.228 1 2.228 2.232a2.23 2.23 0 0 1-2.228 2.231c-1.231 0-2.23-.999-2.23-2.231a2.23 2.23 0 0 1 2.23-2.232Zm60.353-16.069-1.603 10.086-.068.42c-.361 2.203-.722 3.827-1.082 4.873-.382 1.11-1.036 1.982-1.96 2.614-.924.632-2.357 1.107-4.298 1.424-1.94.316-3.29.296-4.048-.062-.757-.358-1.157-1.053-1.199-2.086-.041-1.033.131-2.767.518-5.203l1.603-10.085 4.613-.753-1.8 11.33-.044.274c-.166 1.067-.259 1.797-.278 2.189-.02.424.05.684.213.777.163.094.495.1.994.019.52-.085.88-.204 1.082-.357.202-.154.362-.45.479-.89.116-.44.271-1.27.465-2.487l1.8-11.33 4.613-.753Zm-23.732 7.27c-.17-.145-.557-.167-1.16-.065-.584.098-.988.253-1.213.464-.226.212-.42.67-.584 1.373-.164.704-.406 2.097-.728 4.18-.321 2.083-.507 3.467-.558 4.152-.05.684.009 1.1.18 1.244.17.145.547.168 1.13.07.603-.102 1.017-.259 1.243-.47.225-.211.42-.669.583-1.373.164-.703.406-2.097.728-4.18.322-2.083.508-3.466.558-4.151.051-.685-.009-1.1-.179-1.244Zm34.951-9.055-2.236 14.447 4.568-.769-.577 3.724-9.051 1.523 2.813-18.17 4.483-.755ZM45.4 139.067c-.211-.062-.602-.047-1.174.046l-1.241.203-.806 5.07 1.24-.202.207-.036c.463-.086.796-.188 1-.306.232-.135.415-.376.547-.723.132-.347.264-.937.396-1.768.132-.832.19-1.405.173-1.719-.018-.314-.132-.502-.342-.565Zm73.268-15.57-.579 3.594-5.298.848-.57 3.542 4.574-.732-.579 3.594-4.574.732-.6 3.725 5.298-.848-.579 3.594-9.93 1.59 2.906-18.05 9.931-1.59Zm16.938-2.678-.598 3.716-3.602.58-2.32 14.418-4.648.746 2.32-14.418-3.633.584.598-3.717 11.883-1.91Zm16.225-2.678-.598 3.716-3.602.58-2.32 14.418-4.648.746 2.32-14.418-3.633.583.598-3.716 11.883-1.91Zm15.155-2.5-.578 3.594-5.299.848-.57 3.542 4.574-.732-.578 3.594-4.575.732-.6 3.726 5.299-.849-.58 3.595-9.93 1.59 2.907-18.05 9.93-1.59Zm8.826 4.642c1.231 0 2.229 1 2.229 2.232a2.23 2.23 0 0 1-2.229 2.232c-1.23 0-2.229-1-2.229-2.232a2.23 2.23 0 0 1 2.23-2.232Zm-43.68-85.332c-4.294.805-7.761 4.854-10.402 12.15-2.64 7.294-4.43 15.827-5.368 25.597-3.652 1.08-6.946 2.97-9.883 5.673-2.937 2.701-5.244 5.903-6.923 9.605-1.678 3.703-2.517 7.532-2.517 11.488 0 .514.02 1.01.06 1.489-.256.3-.498.574-.726.824-1.333 1.462-2.468 2.28-3.406 2.456-.592.111-1.073-.021-1.443-.397-.37-.375-.556-.934-.556-1.676 0-2.225.568-6.288 1.703-12.188.74-4.046 1.11-6.588 1.11-7.627 0-1.73-1.209-2.37-3.627-1.916a19.168 19.168 0 0 0-3.258.907c-.246-1.041-.555-1.738-.925-2.089-.37-.35-1.098-.424-2.184-.22-3.406.638-6.626 2.317-9.662 5.037-3.035 2.72-5.466 6.02-7.292 9.898-1.568 3.33-2.124 5.97-2.25 9.153-.939-.392-1.836-.57-2.845-2.547-1.283-2.53-2.567-4.39-3.85-5.584s-3.11-1.89-5.479-2.089c3.752-1.692 6.935-3.797 9.551-6.315 2.616-2.518 4.578-5.222 5.886-8.113 1.308-2.891 1.962-5.722 1.962-8.491 0-3.165-.778-5.863-2.332-8.094-1.555-2.23-3.937-3.762-7.145-4.595-3.208-.833-7.181-.805-11.92.083-6.81 1.277-12.82 3.998-18.027 8.164-5.207 4.166-9.254 9.536-12.142 16.11-2.887 6.575-4.33 14.017-4.33 22.325 0 4.45.69 8.29 2.072 11.517 1.382 3.228 3.344 5.58 5.886 7.057 2.542 1.477 5.466 1.906 8.773 1.286 3.01-.565 5.257-1.79 6.737-3.674 1.481-1.885 2.468-4.382 2.962-7.491.098-.562.345-2.117.74-4.664.938-5.665 1.505-9.035 1.703-10.11 1.333-.102 2.455.108 3.368.629.914.52 1.839 1.497 2.777 2.929.938 1.431 2.22 3.676 3.85 6.733 2.023 3.825 4.158 6.392 6.404 7.702 1.913 1.116 4.526-1.298 7.241-2.409.128.171.264.331.408.48.128.131.258.257.392.377-.899.757-.446.598.205.177 1.75 1.453 3.994 1.923 6.732 1.41 3.9-.73 7.132-3.414 9.699-8.05.691 1.8 1.715 3.129 3.072 3.987 1.358.858 2.85 1.135 4.48.83 2.122-.398 4.318-1.675 6.589-3.832a43.03 43.03 0 0 0 1.56-1.562c.13.143.263.282.402.416 1.95 1.884 4.43 2.544 7.44 1.98 2.073-.388 3.887-1.174 5.442-2.355 1.555-1.182 3.368-3.277 5.441-6.287 1.975 4.031 4.837 5.695 8.588 4.992 2.37-.444 4.763-1.77 7.182-3.98a44.266 44.266 0 0 0 1.91-1.853c.133.221.274.434.422.638 1.456 2.002 3.788 2.702 6.996 2.1 3.06-.573 6.286-2.732 9.68-6.477a10.235 10.235 0 0 0 2.647 1.979c2.049 1.075 4.529 1.34 7.44.793 2.962-.555 5.665-1.89 8.108-4.004 2.443-2.115 4.38-4.778 5.811-7.989 1.432-3.21 2.148-6.695 2.148-10.454 0-2.72-.519-5.17-1.555-7.349-1.037-2.18-2.591-3.804-4.664-4.875-2.073-1.07-4.566-1.332-7.478-.786-3.01.564-5.725 1.901-8.144 4.011-2.418 2.11-4.331 4.768-5.738 7.975-1.406 3.206-2.11 6.688-2.11 10.447 0 1.595.179 3.098.535 4.507-.35.421-.676.801-.979 1.14-1.333 1.486-2.443 2.312-3.331 2.479-.938.175-1.605-.095-2-.813-.394-.717-.592-1.817-.592-3.3 0-1.93.593-5.725 1.777-11.387.938-4.676 1.407-7.632 1.407-8.869 0-1.681-1.259-2.286-3.776-1.814-1.629.305-2.813.824-3.554 1.556-.74.732-1.332 1.931-1.777 3.597-.888 3.183-1.616 6.572-2.184 10.164-.567 3.593-.851 6.503-.851 8.728 0 .301.005.597.014.887a36.306 36.306 0 0 1-1.717 1.954c-1.382 1.446-2.74 2.294-4.072 2.544-1.036.194-1.888-.264-2.554-1.376-.666-1.111-1.098-3.083-1.296-5.914 4.541-8.665 8.169-16.96 10.884-24.888 2.714-7.927 4.072-14.66 4.072-20.199 0-3.907-.704-6.692-2.11-8.357-1.407-1.666-3.172-2.3-5.294-1.901ZM55.417 66.9c2.111 1.382 3.167 3.63 3.167 6.745 0 2.57-.65 4.991-1.952 7.263-1.301 2.271-3.045 4.18-5.23 5.729a21.011 21.011 0 0 1-6.728 3.156l-.527.136 2.21-12.725c.049-.306.073-.73.073-1.274 0-2.522-1.399-3.519-4.198-2.993-3.487.656-5.549 2.65-6.187 5.983a425.326 425.326 0 0 0-2.072 12.073l-.138.874-1.841.347c-.983.184-1.854.694-2.615 1.53-.761.835-1.142 1.845-1.142 3.032 0 .988.307 1.82.92 2.496.58.638 1.631.835 3.152.59l.274-.047-1.989 11.496c-.245 1.48-.577 2.58-.994 3.302-.418.72-.946 1.141-1.584 1.261-.835.157-1.719-.245-2.652-1.207-.933-.961-1.718-2.519-2.357-4.673-.638-2.154-.957-4.813-.957-7.977 0-6.772 1.006-12.708 3.02-17.808 2.013-5.1 4.824-9.187 8.434-12.263 3.609-3.076 7.82-5.067 12.632-5.971 4.076-.767 7.17-.458 9.28.924Zm29.21 18.835L81.909 99.88c-.441 2.206-1.152 4.044-2.132 5.513-.98 1.468-2.01 2.304-3.087 2.507-1.078.203-1.924-.009-2.536-.634-.613-.626-.92-1.704-.92-3.235 0-2.766.515-5.48 1.544-8.144 1.03-2.663 2.414-4.912 4.154-6.745 1.74-1.834 3.639-2.97 5.697-3.406Zm94.477 7.967-.114.17a26.308 26.308 0 0 1-4.354 4.94 77.182 77.182 0 0 1-.114 4.404l4.69-.758a81.94 81.94 0 0 0-.108-8.756Zm-63.41-13.118c-.098 2.67-.147 4.596-.147 5.775 0 3.291.244 6.217.732 8.778-1.414 2.33-2.585 3.962-3.511 4.897-.927.936-1.853 1.491-2.78 1.665-2.438.459-3.657-1.105-3.657-4.69 0-3.39.89-6.64 2.67-9.75 1.78-3.11 4.01-5.336 6.693-6.675Zm52.634-7.263c.99 1.198 1.486 3.156 1.486 5.874 0 3.508-.582 6.285-1.745 8.33-1.164 2.046-2.587 3.226-4.27 3.541-1.486.278-2.723-.158-3.713-1.307-.99-1.149-1.486-3.131-1.486-5.948 0-3.557.582-6.347 1.745-8.368 1.164-2.02 2.637-3.198 4.419-3.531 1.386-.26 2.574.21 3.564 1.409Zm-35.893-29.499c.322.978.483 2.406.483 4.284 0 7.316-2.773 17.522-8.32 30.62.297-5.937.78-11.662 1.449-17.175.668-5.513 1.473-10.026 2.414-13.538.94-3.512 1.882-5.357 2.823-5.533.445-.083.83.364 1.151 1.342Zm12.431 7.434c-2.024.38-3.714 1.278-5.071 2.694-1.358 1.417-2.036 2.99-2.036 4.722 0 1.73.518 2.98 1.554 3.751 1.037.77 2.592.96 4.665.572 2.122-.398 3.825-1.298 5.108-2.7 1.283-1.403 1.925-3.094 1.925-5.072 0-1.632-.568-2.787-1.703-3.464-1.135-.677-2.616-.845-4.442-.503Zm-45.77-32.53c-30.393 0-56.837 16.948-70.437 41.928a44.322 44.322 0 0 1 8.15-4.787c13.652-19.74 36.419-32.666 62.198-32.666 11.353 0 22.123 2.507 31.787 7 .143-.032.288-.062.435-.09 3.862-.723 7.4.547 9.945 3.559.945 1.12 1.666 2.43 2.188 3.929 8 5.813 14.819 13.16 20.029 21.61.405-.102.814-.19 1.228-.268a20.147 20.147 0 0 1 3.744-.36c-13.91-23.84-39.722-39.855-69.267-39.855Z"/></svg>