<?xml version="1.0" encoding="UTF-8"?>
<svg width="1008px" height="961px" viewBox="0 0 1008 961" version="1.1" xmlns="http://www.w3.org/2000/svg" xmlns:xlink="http://www.w3.org/1999/xlink">
    <!-- Generator: Sketch 52.6 (67491) - http://www.bohemiancoding.com/sketch -->
    <title>Combined Shape</title>
    <desc>Created with Sketch.</desc>
    <g id="Page-1" stroke="none" stroke-width="1" fill="none" fill-rule="evenodd">
        <g id="Version-3-Negative-1" transform="translate(-109.000000, -102.000000)" fill="#FFFFFF">
            <path d="M1093.29118,596.803649 L1116.92281,593 L1114.92281,817 L1023.56363,832.269204 C939.213578,970.62514 786.894441,1063 613,1063 C496.287275,1063 389.293558,1021.38798 306.045608,952.190694 L140.5,979.858955 L141.5,750 L161.326913,746.808743 C159.280128,741.183613 157.335393,735.509332 155.494991,729.788257 C141.608928,718.71965 130.704824,703.792881 122.836609,685.458199 C113.528707,663.76873 109,638.662787 109,610.262337 C109,560.159292 117.81596,514.817911 135.582276,474.45287 C141.143532,461.817706 147.421926,449.868765 154.413645,438.616939 C215.55954,243.53511 397.751122,102 613,102 C800.939485,102 963.677748,209.899258 1042.64728,367.130261 C1058.31521,375.902068 1070.35325,388.907973 1078.26933,405.516962 C1085.89212,421.510599 1089.65064,439.237851 1089.65064,458.410495 C1089.65064,471.352802 1088.34502,483.884428 1085.7294,495.969361 C1090.83398,524.038577 1093.5,552.957947 1093.5,582.5 C1093.5,587.284538 1093.43007,592.052743 1093.29118,596.803649 Z M1035.85638,606.048115 L1062.11264,601.822017 C1062.37003,595.580055 1062.5,589.305205 1062.5,583 C1062.5,572.890022 1062.16586,562.858086 1061.50802,552.914635 C1054.33316,563.575319 1045.9925,573.103004 1036.49872,581.445521 C1036.49957,581.796914 1036.5,582.148407 1036.5,582.5 C1036.5,590.401784 1036.28359,598.253024 1035.85638,606.048115 Z M945.045529,845.392229 C867.472008,943.239201 747.565289,1006 613,1006 C528.817174,1006 450.371184,981.437681 384.437716,939.088726 L348.054535,945.169584 C422.407893,999.757604 514.188639,1032 613.5,1032 C766.257084,1032 901.197139,955.716227 982.303716,839.165128 L945.045529,845.392229 Z M1001.3684,356.671659 C923.477306,223.474168 778.937559,134 613.5,134 C443.307118,134 295.230684,228.691769 219.081205,368.264799 C233.374657,357.698761 248.591814,348.779646 264.702554,341.515515 C341.154365,231.22737 468.642379,159 613,159 C676.57519,159 736.878474,173.008696 790.991445,198.107682 C791.799333,197.930099 792.612441,197.764753 793.430794,197.611696 C815.054282,193.567453 834.868511,200.666756 849.115462,217.493283 C854.407521,223.743531 858.444909,231.060807 861.365239,239.436183 C906.16192,271.923621 944.346915,312.970564 973.519532,360.176315 C975.789319,359.615919 978.083044,359.118845 980.400204,358.685466 C987.599166,357.339044 994.598184,356.660211 1001.3684,356.671659 Z M861.500539,604.528339 C878.633581,601.323944 896.699851,589.259175 915.699637,568.333789 C919.960846,572.761382 924.9029,576.447365 930.52583,579.391768 C941.995556,585.397801 955.883389,586.875905 972.189745,583.826125 C988.772481,580.724655 1003.904,573.266441 1017.58476,561.451262 C1031.26551,549.636083 1042.11322,534.7589 1050.12821,516.819267 C1058.1432,498.879634 1062.15064,479.410238 1062.15064,458.410495 C1062.15064,443.213312 1059.2487,429.526185 1053.44474,417.348704 C1047.64079,405.171223 1038.93498,396.092525 1027.32707,390.112338 C1015.71915,384.132152 1001.76222,382.66697 985.455868,385.71675 C968.596753,388.869911 953.39614,396.341047 939.853573,408.130381 C926.311005,419.919715 915.601482,434.771052 907.724683,452.68484 C899.847884,470.598627 895.909543,490.0551 895.909543,511.054844 C895.909543,519.969174 896.908022,528.363934 898.904998,536.239206 C896.948485,538.59288 895.120868,540.714828 893.422145,542.605054 C885.959914,550.908526 879.741481,555.525413 874.766661,556.455854 C869.515461,557.437987 865.784402,555.925341 863.57337,551.917872 C861.362339,547.910403 860.25684,541.762074 860.25684,533.472702 C860.25684,522.696517 863.573337,501.491267 870.206431,469.856313 C875.457631,443.72975 878.083191,427.212812 878.083191,420.305002 C878.083191,410.910379 871.035634,407.531244 856.940309,410.167494 C847.819804,411.873303 841.18681,414.771722 837.041126,418.862839 C832.895442,422.953956 829.578944,429.653023 827.091534,438.960241 C822.116713,456.745739 818.040185,475.675441 814.861828,495.749915 C811.68347,515.824389 810.094315,532.078411 810.094315,544.51247 C810.094315,546.196107 810.120519,547.848201 810.172926,549.46875 C806.612585,553.77403 803.408045,557.413664 800.55929,560.387669 C792.82068,568.46652 785.220373,573.203706 777.758142,574.599368 C771.954185,575.684882 767.18672,573.122688 763.455604,566.912709 C759.724489,560.70273 757.306209,549.688227 756.200694,533.868872 C781.627555,485.455922 801.941101,439.105204 817.141942,394.815327 C832.342783,350.52545 839.94309,312.90758 839.94309,281.96059 C839.94309,260.131909 836.004749,244.566309 828.12795,235.263323 C820.25115,225.960338 810.370752,222.420259 798.486458,224.642979 C774.441491,229.140112 755.026163,251.767556 740.23989,292.525991 C725.453618,333.284427 715.435032,380.9563 710.183832,435.54304 C689.731792,441.578687 671.283775,452.143959 654.839229,467.239175 C638.394683,482.33439 625.474162,500.224179 616.077278,520.90908 C606.680395,541.59398 601.982023,562.988606 601.982023,585.0936 C601.982023,587.963913 602.092553,590.736617 602.313612,593.41171 C600.88246,595.085046 599.528232,596.620538 598.250926,598.01819 C590.788695,606.183506 584.432075,610.757162 579.180876,611.739294 C575.864329,612.359588 573.169675,611.620183 571.096833,609.521055 C569.023991,607.421927 567.987585,604.300067 567.987585,600.15538 C567.987585,587.721322 571.165895,565.02222 577.522611,532.057396 C581.668294,509.453347 583.741105,495.250256 583.741105,489.447695 C583.741105,479.77676 576.969923,476.20778 563.427356,478.740648 C557.07064,479.929545 550.990395,481.619351 545.186438,483.810115 C543.804543,477.989698 542.077201,474.099062 540.004359,472.13809 C537.931517,470.177119 533.854989,469.765242 527.774652,470.902448 C508.704506,474.469139 490.671052,483.851643 473.673748,499.05024 C456.676444,514.248838 443.064986,532.682316 432.838966,554.351227 C424.060675,572.952402 420.947346,587.704518 420.241761,605.491699 C414.983614,603.301784 409.959065,602.304817 404.309842,591.258826 C397.123989,577.129301 389.938245,566.73015 382.752393,560.061061 C375.566541,553.391972 365.340674,549.502043 352.074485,548.391158 C373.079284,538.93638 390.905457,527.174947 405.55354,513.106505 C420.201624,499.038064 431.187521,483.927804 438.511563,467.775274 C445.835604,451.622744 449.49757,435.809968 449.49757,420.336473 C449.49757,402.652478 445.144667,387.578876 436.438731,375.115215 C427.732795,362.651554 414.397712,354.093286 396.433081,349.440152 C378.468451,344.787019 356.220281,344.941626 329.687904,349.90398 C291.547612,357.037362 257.898983,372.241611 228.741006,395.517181 C199.583029,418.792751 176.920297,448.79711 160.75213,485.531159 C144.583962,522.265208 136.5,563.841851 136.5,610.262337 C136.5,635.130454 140.369247,656.580527 148.107857,674.613199 C155.846467,692.645872 166.832364,705.788133 181.065879,714.040378 C195.299394,722.292622 211.6746,724.687054 230.191988,721.223745 C247.051102,718.070583 259.626155,711.22866 267.917523,700.697772 C276.208891,690.166883 281.736386,676.215663 284.500176,658.843694 C285.052933,655.700875 286.434807,647.015021 288.645839,632.785871 C293.897038,601.13306 297.075348,582.302275 298.180864,576.292949 C305.643095,575.726225 311.930621,576.898888 317.043632,579.810975 C322.156642,582.723062 327.338669,588.178034 332.589868,596.176056 C337.841068,604.174077 345.026812,616.714617 354.147317,633.798052 C365.478853,655.165269 377.432062,669.508155 390.007304,676.827141 C400.722626,683.063625 415.35084,669.575943 430.557931,663.371052 C431.272038,664.32445 432.031538,665.219206 432.838966,666.049963 C433.554008,666.785665 434.28594,667.48781 435.034763,668.156399 C430.001647,672.38787 432.538086,671.498647 436.182304,669.143764 C445.982731,677.265426 458.548875,679.89243 473.881031,677.024856 C495.714966,672.941252 513.817514,657.950584 528.189219,632.052399 C532.058524,642.104907 537.7933,649.52881 545.393721,654.324332 C552.994141,659.119854 561.354479,660.664688 570.474983,658.958879 C582.359277,656.736158 594.657955,649.60054 607.371385,637.551812 C610.322088,634.755381 613.235562,631.84685 616.111811,628.826213 C616.83275,629.623569 617.581277,630.396564 618.357393,631.145199 C629.274361,641.675612 643.162193,645.364182 660.021308,642.21102 C671.629223,640.039991 681.785996,635.653594 690.491932,629.051698 C699.197868,622.449803 709.354642,610.741237 720.962557,593.925649 C732.017714,616.449807 748.047451,625.747482 769.05225,621.818952 C782.318438,619.337776 795.722615,611.926319 809.265182,599.584361 C812.911274,596.261512 816.477217,592.808457 819.963021,589.225189 C820.707858,590.464231 821.494858,591.652523 822.324021,592.790066 C830.4772,603.975547 843.535908,607.888266 861.500539,604.528339 Z M864.817069,381.339511 C876.701363,379.11679 886.236293,374.086849 893.422145,366.249536 C900.607997,358.412224 904.200869,348.967461 904.200869,337.914965 C904.200869,328.796655 901.022559,322.345234 894.665844,318.560507 C888.309129,314.775781 880.017885,313.839719 869.791865,315.752292 C858.460329,317.871631 848.994493,322.888649 841.394072,330.803498 C833.793652,338.718348 829.993498,347.511108 829.993498,357.182042 C829.993498,366.852977 832.895434,373.839628 838.699391,378.142205 C844.503348,382.444782 853.209154,383.51054 864.817069,381.339511 Z M241.053863,587.057133 L229.917731,651.291267 C228.542893,659.559027 226.68689,665.70735 224.349665,669.736421 C222.012441,673.765493 219.056583,676.115279 215.482005,676.78585 C210.807556,677.66275 205.858213,675.414948 200.633829,670.042375 C195.409445,664.669802 191.010029,655.966294 187.43545,643.93159 C183.860872,631.896885 182.073609,617.041303 182.073609,599.364398 C182.073609,561.524773 187.71036,528.359391 198.984032,499.867257 C210.257703,471.375122 225.999361,448.535856 246.20948,431.348772 C266.419598,414.161688 289.997715,403.040776 316.94454,397.985703 C339.76685,393.704366 357.089548,395.426281 368.913155,403.151498 C380.736762,410.876715 386.648476,423.439486 386.648476,440.84019 C386.648476,455.202675 383.00521,468.729315 375.718569,481.420515 C368.431928,494.111716 358.670725,504.781182 346.434667,513.429236 C334.198609,522.077289 320.656658,528.208251 305.808408,531.822304 L318.181888,460.727243 C318.456855,459.018451 318.594337,456.644982 318.594337,453.606764 C318.594337,439.52048 310.757878,433.947519 295.084725,436.887715 C275.562026,440.550063 264.01356,451.692909 260.438982,470.316587 C256.589435,490.649056 252.464983,514.761469 248.065502,542.654548 L237.754268,544.588877 C232.254917,545.620525 227.374315,548.469481 223.112317,553.135831 C218.85032,557.80218 216.719353,563.44969 216.719353,570.07853 C216.719353,575.602562 218.437874,580.251732 221.874969,584.026179 C225.312064,587.800626 231.704965,588.810933 241.053863,587.057133 Z M488.027704,632.22496 C481.990396,633.358325 477.256669,632.177308 473.82638,628.681873 C470.396091,625.186439 468.680972,619.16144 468.680972,610.606697 C468.680972,595.152967 471.562372,579.986419 477.325257,565.106597 C483.088142,550.226775 490.840479,537.664251 500.582499,527.418648 C510.324519,517.173045 520.958255,510.830511 532.484025,508.390854 L517.253619,587.414442 C514.783811,599.744349 510.804736,610.011787 505.316274,618.217065 C499.827812,626.422343 494.065013,631.091594 488.027704,632.22496 Z M793.736547,266.719186 C796.232257,266.253555 798.381309,268.752359 800.183766,274.215674 C801.986223,279.67899 802.887439,287.657789 802.887439,298.152312 C802.887439,339.025717 787.358809,396.051769 756.301083,469.232179 C757.964889,436.057331 760.668535,404.069808 764.4121,373.26865 C768.155665,342.467492 772.661741,317.254998 777.930462,297.630412 C783.199184,278.005825 788.467826,267.702186 793.736547,266.719186 Z M674.491986,597.587338 C660.839693,600.149605 654.013649,591.412789 654.013649,571.376627 C654.013649,552.438337 658.996661,534.280517 668.962835,516.902622 C678.929009,499.524726 691.42067,487.093741 706.438193,479.609292 C705.892101,494.533053 705.619059,505.288388 705.619059,511.875619 C705.619059,530.264973 706.984268,546.613813 709.714727,560.92263 C701.796397,573.9364 695.243394,583.057105 690.055523,588.28502 C684.867651,593.512935 679.679858,596.613677 674.491986,597.587338 Z M975.805582,538.177344 C967.488944,539.728917 960.558516,537.295009 955.01409,530.875547 C949.469665,524.456085 946.697494,513.378573 946.697494,497.64268 C946.697494,477.765763 949.954795,462.181592 956.469495,450.8897 C962.984195,439.597808 971.231404,433.021017 981.21137,431.159129 C988.973566,429.710995 995.626777,432.334653 1001.1712,439.030183 C1006.71563,445.725714 1009.4878,456.665193 1009.4878,471.84895 C1009.4878,491.449799 1006.2305,506.964954 999.715798,518.39488 C993.201098,529.824806 985.231106,536.418895 975.805582,538.177344 Z M166.5,777.926076 L166.5,948.858955 L1091.92281,794.932879 L1091.92281,624 L166.5,777.926076 Z M306.362846,889.848352 L301.98501,857.124278 L293.760726,858.465212 L288.301674,892.793148 L262.5,897 L278.688912,795.199913 L317.713945,788.83705 C325.777008,787.522402 331.70876,787.756316 335.509378,789.538799 C339.309995,791.321282 341.532582,794.465996 342.177203,798.973035 C342.821824,803.480074 342.500972,809.777902 341.214637,817.866709 C340.022425,825.363653 338.374011,831.613701 336.269347,836.617042 C334.164683,841.620384 330.87367,845.688087 326.39621,848.820275 L332.970823,885.510036 L306.362846,889.848352 Z M303.461985,837.867236 C306.666725,837.345803 308.9212,836.707777 310.225477,835.953141 C311.529755,835.198505 312.55205,833.848724 313.292393,831.903757 C314.032736,829.95879 314.773768,826.657706 315.515512,822.000405 C316.257256,817.343104 316.579857,814.134757 316.483326,812.375266 C316.386794,810.615776 315.747459,809.561009 314.565301,809.210933 C313.383143,808.860857 311.189727,808.946535 307.984987,809.467968 L301.023002,810.600732 L296.5,839 L303.461985,837.867236 Z M397.104452,876.756957 C385.564121,878.614465 377.615236,878.390186 373.257557,876.084113 C368.899879,873.77804 366.65115,869.461766 366.511305,863.13516 C366.37146,856.808554 367.529045,846.00075 369.984095,830.711425 C372.439146,815.4221 374.787037,804.398839 377.027838,797.641312 C379.26864,790.883784 383.05962,785.59537 388.400893,781.775912 C393.742166,777.956454 402.182841,775.118014 413.723171,773.260506 C425.263502,771.402998 433.243285,771.598436 437.662759,773.846824 C442.082233,776.095213 444.357924,780.407148 444.489901,786.782758 C444.621877,793.158368 443.460358,803.990674 441.005307,819.279998 C438.550257,834.569323 436.206301,845.568083 433.973367,852.276606 C431.740434,858.98513 427.922491,864.277883 422.519423,868.155025 C417.116355,872.032168 408.644783,874.89945 397.104452,876.756957 Z M400.949314,855.665756 C404.329996,855.09722 406.652022,854.221128 407.915463,853.037453 C409.178903,851.853778 410.269678,849.290937 411.187818,845.348852 C412.105959,841.406768 413.466811,833.602666 415.270417,821.936313 C417.074022,810.26996 418.11794,802.519158 418.402203,798.683674 C418.686466,794.84819 418.351037,792.525196 417.395905,791.714622 C416.440773,790.904049 414.272899,790.783032 410.892217,791.351568 C407.617181,791.902337 405.347978,792.769546 404.084537,793.953221 C402.821097,795.136896 401.730322,797.699737 400.812182,801.641822 C399.894041,805.583906 398.533189,813.388008 396.729583,825.054361 C394.925978,836.720714 393.88206,844.471516 393.597797,848.307 C393.313534,852.142484 393.648963,854.465478 394.604095,855.276051 C395.559227,856.086625 397.674279,856.216525 400.949314,855.665756 Z M550.5,751 L541.510959,807.487923 C539.356095,821.029278 537.206091,830.911101 535.060883,837.133689 C532.915675,843.356277 529.251434,848.237738 524.068051,851.778217 C518.884668,855.318696 510.849457,857.975978 499.962178,859.750142 C489.0749,861.524306 481.507041,861.409661 477.258376,859.406205 C473.00971,857.402749 470.76834,853.507722 470.534197,847.721006 C470.300054,841.934291 471.268265,832.220981 473.438858,818.580784 L482.427899,762.092861 L508.298531,757.877047 L498.200606,821.333296 C497.115309,828.153395 496.514734,832.752232 496.398862,835.129946 C496.282991,837.50766 496.682023,838.959004 497.595971,839.484021 C498.50992,840.009039 500.368199,840.043189 503.170865,839.586474 C506.081326,839.112192 508.103602,838.445676 509.237756,837.586905 C510.371909,836.728134 511.266396,835.066002 511.921242,832.600458 C512.576088,830.134914 513.446146,825.492162 514.531442,818.672064 L524.629368,755.215814 L550.5,751 Z M572.5,847 L588.278406,745.225165 L613.425821,741 L600.881071,821.916911 L626.5,817.612524 L623.266344,838.470448 L572.5,847 Z M653.5,832 L669.801836,730.90473 L725.5,722 L722.253849,742.13089 L692.537336,746.881809 L689.338575,766.718817 L714.995455,762.61693 L711.749305,782.74782 L686.092424,786.849707 L682.727801,807.715301 L712.444314,802.964381 L709.198164,823.09527 L653.5,832 Z M757.862867,816 L770.869013,735.242027 L750.5,738.510104 L753.85259,717.69315 L820.5,707 L817.14741,727.816955 L796.941349,731.058888 L783.935203,811.816861 L757.862867,816 Z M848.862867,801 L861.869013,720.242027 L841.5,723.510104 L844.85259,702.69315 L911.5,692 L908.14741,712.816955 L887.941349,716.058888 L874.935203,796.816861 L848.862867,801 Z M924.5,788 L940.801836,686.90473 L996.5,678 L993.253849,698.13089 L963.537336,702.881809 L960.338575,722.718817 L985.995455,718.61693 L982.749305,738.74782 L957.092424,742.849707 L953.727801,763.715301 L983.444314,758.964381 L980.198164,779.09527 L924.5,788 Z M212,866 C205.096441,866 199.5,860.403559 199.5,853.5 C199.5,846.596441 205.096441,841 212,841 C218.903559,841 224.5,846.596441 224.5,853.5 C224.5,860.403559 218.903559,866 212,866 Z M1046,729 C1039.09644,729 1033.5,723.403559 1033.5,716.5 C1033.5,709.596441 1039.09644,704 1046,704 C1052.90356,704 1058.5,709.596441 1058.5,716.5 C1058.5,723.403559 1052.90356,729 1046,729 Z" id="Combined-Shape"></path>
        </g>
    </g>
</svg>