<?xml version="1.0" encoding="UTF-8"?>
<svg width="197px" height="197px" viewBox="0 0 197 197" version="1.1" xmlns="http://www.w3.org/2000/svg" xmlns:xlink="http://www.w3.org/1999/xlink">
    <!-- Generator: Sketch 64 (93537) - https://sketch.com -->
    <title>Artboard</title>
    <desc>Created with Sketch.</desc>
    <g id="Artboard" stroke="none" stroke-width="1" fill="none" fill-rule="evenodd">
        <path d="M99.0068929,13 C132.570382,13 161.633228,32.3121746 175.73587,60.4538195 C178.53349,62.0229827 180.683349,64.3508086 182.097064,67.3235353 C183.458381,70.1860802 184.129597,73.3589078 184.129597,76.7904319 C184.129597,79.1081282 183.896176,81.3522395 183.428549,83.5163097 C184.341159,88.5391175 184.817036,93.7138623 184.817036,99 C184.817036,99.856681 184.804537,100.710436 184.779713,101.561093 L189,100.879292 L188.64283,140.970864 L172.32674,143.704902 C157.262935,168.467239 130.061368,185 99.0068929,185 C78.1642333,185 59.0571614,177.552624 44.1904691,165.168207 L14.6254308,170.119397 L14.8040159,128.979188 L18.3449709,128.408467 C17.9797359,127.402497 17.6327028,126.387764 17.3042709,125.36467 C14.8248221,123.382481 12.8766466,120.710168 11.4710123,117.427482 C9.80875958,113.545496 9,109.052028 9,103.968909 C9,95.001455 10.5743991,86.8862443 13.7471986,79.6617 C14.7403787,77.400204 15.8616347,75.2615339 17.1102857,73.2476395 C28.029873,38.3320437 60.5666059,13 99.0068929,13 Z M164.95791,144.939605 L158.304032,146.054088 C144.450518,163.565859 123.037528,174.798127 99.0068929,174.798127 C83.9733773,174.798127 69.9643367,170.402123 58.1897391,162.82276 L51.6926348,163.911098 C64.9706068,173.681082 81.3609939,179.451613 99.0961855,179.451613 C126.375618,179.451613 150.47336,165.799033 164.95791,144.939605 Z M184,106 L19,133.481811 L19,164 L184,136.518189 L184,106 Z M46.2632195,135.383781 C47.5477427,135.202506 48.5046094,135.259624 49.1338449,135.555135 C49.8114832,135.873378 50.2077634,136.434832 50.3226974,137.239514 C50.4376313,138.044197 50.3804244,139.168605 50.1510749,140.612773 C49.9385071,141.951269 49.6446001,143.067147 49.2693451,143.960439 C48.8940901,144.85373 48.3073128,145.579974 47.5089955,146.139192 L47.5089955,146.139192 L48.6812285,152.689746 L43.9371093,153.464305 L43.1565547,147.62178 L41.6901906,147.861189 L40.7168586,153.990066 L36.1165006,154.741153 L39.0029332,136.565865 L45.9609747,135.429846 Z M63.0791204,132.648825 C65.1367253,132.317187 66.5594957,132.35208 67.3474742,132.753505 C68.1354527,133.15493 68.5412013,133.924779 68.5647323,135.063074 C68.5882633,136.20137 68.381168,138.135359 67.9434402,140.8651 C67.5057124,143.594841 67.0877922,145.558549 66.6896672,146.756282 C66.2915422,147.954015 65.6108149,148.898978 64.6474647,149.591199 C63.6841144,150.283421 62.1736595,150.795342 60.1160546,151.12698 C58.0584496,151.458617 56.6411882,151.418575 55.8642276,151.006851 C55.0872671,150.595127 54.6863259,149.824503 54.6613919,148.694957 C54.6364579,147.565411 54.8428518,145.635797 55.2805796,142.906056 C55.7183074,140.176314 56.136929,138.208232 56.536457,137.00175 C56.9359849,135.795267 57.6119049,134.851079 58.5642372,134.169157 C59.5165694,133.487235 61.0215154,132.980462 63.0791204,132.648825 Z M27.1125081,144.742968 C28.3433912,144.742968 29.3412191,145.742151 29.3412191,146.974705 C29.3412191,148.20726 28.3433912,149.206443 27.1125081,149.206443 C25.881625,149.206443 24.8837971,148.20726 24.8837971,146.974705 C24.8837971,145.742151 25.881625,144.742968 27.1125081,144.742968 Z M87.4660024,128.674456 L85.8632844,138.759754 L85.7954924,139.179618 C85.4339831,141.382718 85.0732408,143.007057 84.7132559,144.05268 C84.330772,145.163655 83.6774493,146.035186 82.7532683,146.6673 C81.8290872,147.299414 80.3964343,147.773842 78.4552664,148.0906 C76.5140985,148.407357 75.164773,148.386889 74.4072492,148.029194 C73.6497254,147.671498 73.2500961,146.976084 73.2083491,145.94293 C73.1666022,144.909775 73.3392312,143.17557 73.7262411,140.740263 L73.7262411,140.740263 L75.3289591,130.654964 L79.9416121,129.902277 L78.1411835,141.231694 L78.0980627,141.505651 C77.931716,142.57332 77.8390087,143.303074 77.8199383,143.694934 C77.7992787,144.119449 77.8704249,144.37857 78.0333791,144.472306 C78.1963332,144.566042 78.5276586,144.57214 79.0273652,144.490598 C79.5462913,144.40592 79.9068569,144.286921 80.109073,144.133597 C80.311289,143.980273 80.4707731,143.683517 80.5875301,143.243322 C80.7042871,142.803126 80.8594158,141.974213 81.0529207,140.75656 L81.0529207,140.75656 L82.8533494,129.427143 L87.4660024,128.674456 Z M63.7339573,135.943605 C63.5636603,135.798886 63.1771351,135.777279 62.5743701,135.878785 C61.9904415,135.977119 61.5858495,136.13195 61.360582,136.343282 C61.1353145,136.554614 60.9408329,137.012181 60.7771313,137.715997 C60.6134296,138.419813 60.3707939,139.81315 60.0492167,141.896049 C59.7276395,143.978948 59.5415121,145.362769 59.4908289,146.047552 C59.4401457,146.732336 59.4999518,147.147081 59.6702488,147.2918 C59.8405458,147.436519 60.217653,147.459711 60.8015816,147.361377 C61.4043466,147.259872 61.8183566,147.103455 62.0436241,146.892123 C62.2688916,146.680791 62.4633732,146.223223 62.6270749,145.519407 C62.7907765,144.815592 63.0334122,143.422255 63.3549894,141.339356 C63.6765666,139.256456 63.862694,137.872636 63.9133772,137.187852 C63.9640604,136.503069 63.9042543,136.088324 63.7339573,135.943605 Z M98.6854801,126.889066 L96.4487902,141.335892 L101.016565,140.567391 L100.440015,144.291344 L91.3885338,145.814202 L94.2017744,127.643422 L98.6854801,126.889066 Z M45.3995814,139.067379 C45.1888063,139.004877 44.797727,139.020173 44.226332,139.11327 L44.226332,139.11327 L42.9850317,139.315512 L42.1785946,144.38589 L43.4198949,144.183647 L43.626226,144.14776 C44.0891342,144.061747 44.4223243,143.959797 44.6258044,143.841906 C44.858353,143.707174 45.040625,143.466186 45.1726258,143.118933 C45.3046267,142.771681 45.4367504,142.182308 45.569001,141.350799 C45.7012516,140.519289 45.7587705,139.946473 45.7415592,139.632336 C45.724348,139.318198 45.6103565,139.129881 45.3995814,139.067379 Z M118.667957,123.496824 L118.089178,127.090973 L112.790816,127.939198 L112.220487,131.480878 L116.795029,130.748531 L116.21625,134.34268 L111.641709,135.075027 L111.041807,138.80035 L116.340169,137.952125 L115.76139,141.546275 L105.830581,143.136116 L108.737148,125.086666 L118.667957,123.496824 Z M135.60616,120.818739 L135.008404,124.535377 L131.405726,125.114189 L129.086771,139.532639 L124.438155,140.279492 L126.75711,125.861043 L123.125379,126.444522 L123.723135,122.727883 L135.60616,120.818739 Z M151.831177,118.140653 L151.23342,121.857292 L147.630743,122.436104 L145.311787,136.854553 L140.663171,137.601407 L142.982126,123.182957 L139.350395,123.766437 L139.948151,120.049798 L151.831177,118.140653 Z M166.986411,115.641107 L166.407633,119.235256 L161.109271,120.083481 L160.538942,123.625161 L165.113484,122.892814 L164.534705,126.486963 L159.960164,127.21931 L159.360262,130.944633 L164.658623,130.096408 L164.079845,133.690558 L154.149036,135.2804 L157.055603,117.230949 L166.986411,115.641107 Z M175.812107,120.283122 C177.04299,120.283122 178.040818,121.282305 178.040818,122.514859 C178.040818,123.747414 177.04299,124.746597 175.812107,124.746597 C174.581224,124.746597 173.583396,123.747414 173.583396,122.514859 C173.583396,121.282305 174.581224,120.283122 175.812107,120.283122 Z M132.132012,34.9506685 C127.837939,35.7555663 124.37065,39.8054315 121.730042,47.1003856 C119.089434,54.3953396 117.300264,62.9276624 116.362478,72.6976097 C112.710048,73.7778711 109.415507,75.668846 106.478756,78.3705911 C103.542005,81.0723362 101.234592,84.2742548 99.556449,87.976443 C97.8783055,91.6786312 97.0392464,95.5078463 97.0392464,99.464203 C97.0392464,99.9779325 97.0589853,100.474192 97.0984632,100.95298 C96.8428807,101.252474 96.6010357,101.527297 96.3729281,101.777449 C95.0402848,103.238879 93.9050871,104.057473 92.9673011,104.233256 C92.3750152,104.344276 91.8937901,104.211937 91.5236114,103.836235 C91.1534327,103.460532 90.9683461,102.901781 90.9683461,102.159964 C90.9683461,99.9345133 91.5359449,95.871823 92.6711596,89.9717711 C93.411517,85.9260933 93.7816901,83.3840208 93.7816901,82.3454771 C93.7816901,80.614571 92.5724579,79.9757942 90.153957,80.4291275 C89.0187424,80.6419166 87.9329011,80.9443583 86.8964008,81.3364618 C86.649615,80.2947222 86.3411374,79.5983753 85.9709587,79.2474001 C85.60078,78.896425 84.8727728,78.8227072 83.7869153,79.0262446 C80.3812712,79.6646118 77.1607649,81.3438945 74.1252995,84.0641429 C71.0898342,86.7843914 68.6590306,90.0836195 66.8328157,93.9619262 C65.2651438,97.2911687 64.7091495,99.9315059 64.5831425,103.11506 C63.6441159,102.723108 62.7468063,102.544671 61.7379391,100.567657 C60.4546529,98.0387511 59.171386,96.1775087 57.8880998,94.9838735 C56.6048137,93.7902384 54.7786262,93.0940181 52.4094825,92.8951917 C56.1606266,91.2029733 59.3441157,89.0979093 61.9600452,86.5799364 C64.5759746,84.0619636 66.5378923,81.3575259 67.845857,78.4665423 C69.1538218,75.5755587 69.8077943,72.7453845 69.8077943,69.9759348 C69.8077943,66.8108494 69.0304307,64.1129727 67.4756802,61.8822238 C65.9209297,59.6514749 63.5394824,58.119714 60.331267,57.2868951 C57.1230516,56.4540762 53.1498599,56.4817479 48.4115725,57.369911 C41.6002845,58.6466455 35.5911404,61.3679054 30.3839601,65.5337722 C25.1767797,69.6996391 21.1295533,75.0698262 18.2421595,81.6444946 C15.3547657,88.2191631 13.9110904,95.6605602 13.9110904,103.968909 C13.9110904,108.419811 14.6020803,112.25895 15.9840807,115.486442 C17.3660812,118.713933 19.3279989,121.066138 21.8698926,122.543127 C24.4117863,124.020116 27.3361542,124.448672 30.6430839,123.828808 C33.6538706,123.264454 35.8995877,122.039885 37.3803025,120.155064 C38.8610173,118.270243 39.8481457,115.773251 40.3417173,112.664012 C40.4404316,112.101509 40.6872137,110.546913 41.082071,108.000177 C42.019857,102.334949 42.5874558,98.9646111 42.7848845,97.8890606 C44.1175278,97.7876281 45.2403863,97.9975117 46.1534938,98.5187177 C47.0666012,99.0399237 47.9920341,100.016256 48.9298201,101.447744 C49.8676062,102.879231 51.1508731,105.12374 52.7796593,108.181337 C54.8033029,112.005646 56.937968,114.57274 59.1837188,115.882693 C61.0973158,116.998901 63.709697,114.584872 66.4254569,113.474319 C66.5529858,113.644959 66.6886212,113.805102 66.8328157,113.953791 C66.9605115,114.085468 67.0912238,114.211138 67.2249524,114.330802 C66.3261128,115.088152 66.7790831,114.928998 67.4298861,114.507521 C69.1800964,115.961138 71.4242226,116.431319 74.1623172,115.91808 C78.0615328,115.187196 81.2943783,112.504163 83.8609506,107.8689 C84.5519509,109.6681 85.5760966,110.996832 86.9334185,111.855135 C88.2907404,112.713439 89.783772,112.989934 91.4125583,112.684628 C93.5349162,112.286805 95.7312768,111.00967 98.0017062,108.853186 C98.5286578,108.35268 99.0489608,107.832111 99.5626161,107.291476 C99.691365,107.434187 99.8250408,107.572538 99.9636435,107.706529 C101.913251,109.591265 104.393411,110.251446 107.404198,109.687092 C109.477199,109.298521 111.291047,108.513442 112.845798,107.331834 C114.400548,106.150225 116.214397,104.054623 118.287397,101.044965 C120.261684,105.076344 123.124356,106.740444 126.8755,106.037315 C129.244644,105.593233 131.63843,104.266729 134.056931,102.057763 C134.708069,101.463038 135.344893,100.84501 135.967406,100.203676 C136.100423,100.42544 136.240969,100.638121 136.389045,100.841718 C137.845081,102.843698 140.177172,103.543998 143.385388,102.942637 C146.445094,102.369114 149.671461,100.209759 153.064539,96.4645283 C153.825528,97.25698 154.708105,97.916698 155.712277,98.443688 C157.760599,99.518649 160.240759,99.7832005 163.152831,99.2373502 C166.114261,98.6822483 168.816525,97.3473756 171.259704,95.2326921 C173.702884,93.1180086 175.640123,90.455287 177.071481,87.2444474 C178.502838,84.0336078 179.218506,80.5489708 179.218506,76.7904319 C179.218506,74.0704366 178.700264,71.6207116 177.663764,69.4411832 C176.627263,67.2616549 175.072536,65.6367474 172.999535,64.5664123 C170.926535,63.4960771 168.434036,63.2338385 165.521963,63.7796888 C162.511176,64.3440424 159.796573,65.681228 157.378072,67.7912857 C154.959572,69.9013433 153.04701,72.5594391 151.640331,75.7656529 C150.233652,78.9718666 149.530323,82.4541907 149.530323,86.2127296 C149.530323,87.8082184 149.708637,89.3107145 150.065267,90.7202325 C149.715863,91.1414936 149.389478,91.5212803 149.086111,91.8595933 C147.753468,93.3457507 146.642948,94.1720823 145.754519,94.3386129 C144.816733,94.5143951 144.150422,94.2436615 143.755565,93.5264037 C143.360707,92.809146 143.163282,91.7087167 143.163282,90.2250829 C143.163282,88.296359 143.755559,84.5010383 144.94013,78.839007 C145.877916,74.162869 146.346802,71.2066635 146.346802,69.970302 C146.346802,68.2888504 145.088214,67.684052 142.570999,68.1558887 C140.942212,68.4611947 139.757658,68.9799545 139.017301,69.7121835 C138.276943,70.4444125 137.684666,71.643413 137.240452,73.309221 C136.352023,76.4924736 135.624016,79.880516 135.056409,83.4734499 C134.488801,87.0663839 134.205002,89.9755325 134.205002,92.2009832 C134.205002,92.502321 134.209681,92.798013 134.219041,93.0880593 C133.583217,93.8586194 133.010934,94.5100418 132.502188,95.04233 C131.120188,96.4882846 129.762886,97.3361471 128.430243,97.585943 C127.393743,97.7802287 126.542344,97.3216466 125.876023,96.2101831 C125.209701,95.0987195 124.777832,93.1273414 124.580404,90.2959896 C129.121263,81.6310287 132.748959,73.3351665 135.463603,65.4081542 C138.178247,57.4811418 139.535548,50.748287 139.535548,45.2093875 C139.535548,41.3024852 138.832219,38.5165506 137.42554,36.8515001 C136.018861,35.1864497 134.254369,34.5528454 132.132012,34.9506685 Z M55.4166181,66.900164 C57.5281381,68.2828251 58.5838823,70.5313129 58.5838823,73.6456948 C58.5838823,76.2162957 57.9332492,78.6372968 56.6319636,80.9087707 C55.330678,83.1802446 53.5874726,85.0898682 51.4022949,86.6376988 C49.3627957,88.0823407 47.120142,89.1345385 44.674275,89.7943191 L44.1470501,89.9296943 L46.3567693,77.2050842 C46.4058745,76.8992441 46.4304267,76.47444 46.4304267,75.930659 C46.4304267,73.4094928 45.0309518,72.412043 42.2319602,72.9382798 C38.7454969,73.5937678 36.6831129,75.5881169 36.0447464,78.921387 C35.3977143,82.3464318 34.707194,86.3707602 33.9731671,90.9944802 L33.8350272,91.8684519 L31.9935945,92.2146586 C31.0114922,92.3993031 30.1398895,92.9092099 29.3787602,93.7443942 C28.6176308,94.5795786 28.2370719,95.5903712 28.2370719,96.7768024 C28.2370719,97.765495 28.5439743,98.5976046 29.1577882,99.2731559 C29.7375014,99.9111766 30.7880553,100.107914 32.3094786,99.8633718 L32.582853,99.8156367 L30.5941057,111.312277 C30.3485801,112.792042 30.0171256,113.892471 29.5997321,114.613595 C29.1823386,115.334719 28.6544665,115.755284 28.0161,115.875303 C27.181313,116.032251 26.2974342,115.629939 25.3644369,114.668354 C24.4314397,113.70677 23.6457696,112.149014 23.0074031,109.99504 C22.3690366,107.841066 22.0498581,105.18221 22.0498581,102.018394 C22.0498581,95.245849 23.0564979,89.3099014 25.0698077,84.2103727 C27.0831175,79.110844 29.8943433,75.0230668 33.5035693,71.9469186 C37.1127954,68.8707703 41.323496,66.880347 46.1357974,65.975589 C50.2115221,65.2093143 53.3050981,65.5175029 55.4166181,66.900164 Z M84.6279391,85.7359282 L81.9080154,99.879588 C81.4669445,102.086397 80.7563409,103.924066 79.7761833,105.392648 C78.7960257,106.861231 77.7668757,107.696935 76.6887024,107.899785 C75.6105291,108.102635 74.7651558,107.891256 74.1525573,107.265642 C73.5399589,106.640029 73.2336642,105.561673 73.2336642,104.030543 C73.2336642,101.264631 73.7482392,98.5501186 74.7774047,95.8869247 C75.8065701,93.2237308 77.1910219,90.9752874 78.9308016,89.1415271 C80.6705813,87.3077667 82.5696082,86.1725784 84.6279391,85.7359282 Z M179.103654,93.7034424 L178.989629,93.8733933 C177.733972,95.7138074 176.282225,97.3629052 174.636457,98.8121481 C174.637608,98.87373 174.637685,98.936856 174.637685,99 C174.637685,100.414792 174.599009,101.82053 174.522658,103.216212 L179.211689,102.459021 C179.257677,101.341582 179.280898,100.218254 179.280898,99.0894901 C179.280898,97.2795422 179.221195,95.4835696 179.103654,93.7034424 Z M115.693562,80.5845975 C115.596039,83.2556556 115.547277,85.1806479 115.547277,86.3596321 C115.547277,89.6509629 115.791083,92.577082 116.278703,95.1380774 C114.864607,97.4672848 113.694338,99.0997108 112.767862,100.035404 C111.841385,100.971098 110.914922,101.526069 109.988446,101.700335 C107.55035,102.15893 106.33132,100.595213 106.33132,97.0091361 C106.33132,93.6195567 107.221212,90.3696658 109.001022,87.2593662 C110.780832,84.1490665 113.011657,81.9241659 115.693562,80.5845975 Z M168.328488,73.3217394 C169.31864,74.520107 169.813708,76.4780575 169.813708,79.1956497 C169.813708,82.7038142 169.232003,85.4807202 168.068574,87.526451 C166.905146,89.5721817 165.481824,90.7523932 163.798566,91.0671209 C162.313338,91.3448218 161.075667,90.9092004 160.085515,89.7602436 C159.095363,88.6112868 158.600295,86.6286312 158.600295,83.8122175 C158.600295,80.2546422 159.182,77.4653837 160.345429,75.4443583 C161.508857,73.423333 162.981686,72.2462174 164.763959,71.9129763 C166.150172,71.6537888 167.338336,72.1233718 168.328488,73.3217394 Z M132.435125,43.8232008 C132.757017,44.8010262 132.917961,46.2290736 132.917961,48.1073857 C132.917961,55.4229171 130.144779,65.629453 124.598332,78.7272995 C124.895463,72.7896576 125.378294,67.0645234 126.046839,61.5517251 C126.715384,56.0389269 127.520102,51.5263889 128.461017,48.0139759 C129.401932,44.5015628 130.342833,42.6574152 131.283748,42.4814776 C131.729445,42.3981388 132.113233,42.8453754 132.435125,43.8232008 Z M144.866095,51.2574342 C142.842452,51.6367539 141.151994,52.534701 139.794672,53.9513025 C138.43735,55.367904 137.7587,56.9416342 137.7587,58.6725403 C137.7587,60.4034464 138.276942,61.6539188 139.313442,62.4239951 C140.349943,63.1940713 141.90467,63.3848209 143.977671,62.9962496 C146.100028,62.5984265 147.802825,61.6981665 149.086111,60.2954425 C150.369397,58.8927186 151.011031,57.2022928 151.011031,55.2241144 C151.011031,53.5921172 150.443432,52.4374404 149.308217,51.7600492 C148.173003,51.082658 146.69231,50.9151214 144.866095,51.2574342 Z M99.0961855,18.7273673 C68.7025971,18.7273673 42.2585923,35.674959 28.6593002,60.6553325 C31.2133032,58.76384 33.9310453,57.1675722 36.808379,55.8675376 C50.4606046,36.1284101 73.2275041,23.201873 99.0068929,23.201873 C110.360487,23.201873 121.129767,25.7091581 130.793546,30.2013897 C130.936747,30.1698038 131.082474,30.1400959 131.229145,30.1126033 C135.090778,29.3887637 138.629304,30.6593986 141.173598,33.6710143 C142.118993,34.7900555 142.840175,36.1002003 143.361743,37.5998489 C151.361687,43.413366 158.180983,50.7601073 163.390751,59.2091685 C163.795596,59.1081704 164.205253,59.019196 164.619097,58.9416236 C165.904359,58.7007089 167.153936,58.5792118 168.362675,58.5811902 C154.45385,34.7416824 128.641061,18.7273673 99.0961855,18.7273673 Z" id="Combined-Shape" fill="#FFFFFF"></path>
    </g>
</svg>